<svg xmlns="http://www.w3.org/2000/svg" xmlns:xlink="http://www.w3.org/1999/xlink" width="500" zoomAndPan="magnify" viewBox="0 0 375 374.999991" height="500" preserveAspectRatio="xMidYMid meet" version="1.0"><defs><linearGradient x1="0" gradientTransform="matrix(0.75, 0, 0, 0.75, 0.0000045, 0)" y1="250" x2="499.999979" gradientUnits="userSpaceOnUse" y2="250" id="287f955ce9"><stop stop-opacity="1" stop-color="rgb(0%, 0%, 0%)" offset="0"/><stop stop-opacity="1" stop-color="rgb(0.175476%, 0.175476%, 0.175476%)" offset="0.0078125"/><stop stop-opacity="1" stop-color="rgb(0.526428%, 0.526428%, 0.526428%)" offset="0.015625"/><stop stop-opacity="1" stop-color="rgb(0.878906%, 0.878906%, 0.878906%)" offset="0.0234375"/><stop stop-opacity="1" stop-color="rgb(1.231384%, 1.231384%, 1.231384%)" offset="0.03125"/><stop stop-opacity="1" stop-color="rgb(1.583862%, 1.583862%, 1.583862%)" offset="0.0390625"/><stop stop-opacity="1" stop-color="rgb(1.93634%, 1.93634%, 1.93634%)" offset="0.046875"/><stop stop-opacity="1" stop-color="rgb(2.288818%, 2.288818%, 2.288818%)" offset="0.0546875"/><stop stop-opacity="1" stop-color="rgb(2.641296%, 2.641296%, 2.641296%)" offset="0.0625"/><stop stop-opacity="1" stop-color="rgb(2.993774%, 2.993774%, 2.993774%)" offset="0.0703125"/><stop stop-opacity="1" stop-color="rgb(3.346252%, 3.346252%, 3.346252%)" offset="0.078125"/><stop stop-opacity="1" stop-color="rgb(3.69873%, 3.69873%, 3.69873%)" offset="0.0859375"/><stop stop-opacity="1" stop-color="rgb(4.051208%, 4.051208%, 4.051208%)" offset="0.09375"/><stop stop-opacity="1" stop-color="rgb(4.402161%, 4.402161%, 4.402161%)" offset="0.101562"/><stop stop-opacity="1" stop-color="rgb(4.754639%, 4.754639%, 4.754639%)" offset="0.109375"/><stop stop-opacity="1" stop-color="rgb(5.107117%, 5.107117%, 5.107117%)" offset="0.117188"/><stop stop-opacity="1" stop-color="rgb(5.459595%, 5.459595%, 5.459595%)" offset="0.125"/><stop stop-opacity="1" stop-color="rgb(5.812073%, 5.812073%, 5.812073%)" offset="0.132812"/><stop stop-opacity="1" stop-color="rgb(6.164551%, 6.164551%, 6.164551%)" offset="0.140625"/><stop stop-opacity="1" stop-color="rgb(6.517029%, 6.517029%, 6.517029%)" offset="0.148437"/><stop stop-opacity="1" stop-color="rgb(6.869507%, 6.869507%, 6.869507%)" offset="0.15625"/><stop stop-opacity="1" stop-color="rgb(7.221985%, 7.221985%, 7.221985%)" offset="0.164062"/><stop stop-opacity="1" stop-color="rgb(7.574463%, 7.574463%, 7.574463%)" offset="0.171875"/><stop stop-opacity="1" stop-color="rgb(7.926941%, 7.926941%, 7.926941%)" offset="0.179687"/><stop stop-opacity="1" stop-color="rgb(8.277893%, 8.277893%, 8.277893%)" offset="0.1875"/><stop stop-opacity="1" stop-color="rgb(8.630371%, 8.630371%, 8.630371%)" offset="0.195312"/><stop stop-opacity="1" stop-color="rgb(8.982849%, 8.982849%, 8.982849%)" offset="0.203125"/><stop stop-opacity="1" stop-color="rgb(9.335327%, 9.335327%, 9.335327%)" offset="0.210938"/><stop stop-opacity="1" stop-color="rgb(9.687805%, 9.687805%, 9.687805%)" offset="0.21875"/><stop stop-opacity="1" stop-color="rgb(10.040283%, 10.040283%, 10.040283%)" offset="0.226562"/><stop stop-opacity="1" stop-color="rgb(10.392761%, 10.392761%, 10.392761%)" offset="0.234375"/><stop stop-opacity="1" stop-color="rgb(10.745239%, 10.745239%, 10.745239%)" offset="0.242188"/><stop stop-opacity="1" stop-color="rgb(11.097717%, 11.097717%, 11.097717%)" offset="0.25"/><stop stop-opacity="1" stop-color="rgb(11.450195%, 11.450195%, 11.450195%)" offset="0.257812"/><stop stop-opacity="1" stop-color="rgb(11.802673%, 11.802673%, 11.802673%)" offset="0.265625"/><stop stop-opacity="1" stop-color="rgb(12.155151%, 12.155151%, 12.155151%)" offset="0.273437"/><stop stop-opacity="1" stop-color="rgb(12.506104%, 12.506104%, 12.506104%)" offset="0.28125"/><stop stop-opacity="1" stop-color="rgb(12.858582%, 12.858582%, 12.858582%)" offset="0.289062"/><stop stop-opacity="1" stop-color="rgb(13.21106%, 13.21106%, 13.21106%)" offset="0.296875"/><stop stop-opacity="1" stop-color="rgb(13.563538%, 13.563538%, 13.563538%)" offset="0.304687"/><stop stop-opacity="1" stop-color="rgb(13.916016%, 13.916016%, 13.916016%)" offset="0.3125"/><stop stop-opacity="1" stop-color="rgb(14.268494%, 14.268494%, 14.268494%)" offset="0.320312"/><stop stop-opacity="1" stop-color="rgb(14.620972%, 14.620972%, 14.620972%)" offset="0.328125"/><stop stop-opacity="1" stop-color="rgb(14.97345%, 14.97345%, 14.97345%)" offset="0.335937"/><stop stop-opacity="1" stop-color="rgb(15.325928%, 15.325928%, 15.325928%)" offset="0.34375"/><stop stop-opacity="1" stop-color="rgb(15.678406%, 15.678406%, 15.678406%)" offset="0.351562"/><stop stop-opacity="1" stop-color="rgb(16.030884%, 16.030884%, 16.030884%)" offset="0.359375"/><stop stop-opacity="1" stop-color="rgb(16.381836%, 16.381836%, 16.381836%)" offset="0.367187"/><stop stop-opacity="1" stop-color="rgb(16.734314%, 16.734314%, 16.734314%)" offset="0.375"/><stop stop-opacity="1" stop-color="rgb(17.086792%, 17.086792%, 17.086792%)" offset="0.382812"/><stop stop-opacity="1" stop-color="rgb(17.43927%, 17.43927%, 17.43927%)" offset="0.390625"/><stop stop-opacity="1" stop-color="rgb(17.791748%, 17.791748%, 17.791748%)" offset="0.398438"/><stop stop-opacity="1" stop-color="rgb(18.144226%, 18.144226%, 18.144226%)" offset="0.40625"/><stop stop-opacity="1" stop-color="rgb(18.496704%, 18.496704%, 18.496704%)" offset="0.414062"/><stop stop-opacity="1" stop-color="rgb(18.849182%, 18.849182%, 18.849182%)" offset="0.421875"/><stop stop-opacity="1" stop-color="rgb(19.20166%, 19.20166%, 19.20166%)" offset="0.429688"/><stop stop-opacity="1" stop-color="rgb(19.554138%, 19.554138%, 19.554138%)" offset="0.4375"/><stop stop-opacity="1" stop-color="rgb(19.906616%, 19.906616%, 19.906616%)" offset="0.445312"/><stop stop-opacity="1" stop-color="rgb(20.257568%, 20.257568%, 20.257568%)" offset="0.453125"/><stop stop-opacity="1" stop-color="rgb(20.610046%, 20.610046%, 20.610046%)" offset="0.460938"/><stop stop-opacity="1" stop-color="rgb(20.962524%, 20.962524%, 20.962524%)" offset="0.46875"/><stop stop-opacity="1" stop-color="rgb(21.315002%, 21.315002%, 21.315002%)" offset="0.476562"/><stop stop-opacity="1" stop-color="rgb(21.66748%, 21.66748%, 21.66748%)" offset="0.484375"/><stop stop-opacity="1" stop-color="rgb(22.019958%, 22.019958%, 22.019958%)" offset="0.492188"/><stop stop-opacity="1" stop-color="rgb(22.372437%, 22.372437%, 22.372437%)" offset="0.5"/><stop stop-opacity="1" stop-color="rgb(22.724915%, 22.724915%, 22.724915%)" offset="0.507812"/><stop stop-opacity="1" stop-color="rgb(23.077393%, 23.077393%, 23.077393%)" offset="0.515625"/><stop stop-opacity="1" stop-color="rgb(23.429871%, 23.429871%, 23.429871%)" offset="0.523437"/><stop stop-opacity="1" stop-color="rgb(23.782349%, 23.782349%, 23.782349%)" offset="0.53125"/><stop stop-opacity="1" stop-color="rgb(24.134827%, 24.134827%, 24.134827%)" offset="0.539062"/><stop stop-opacity="1" stop-color="rgb(24.485779%, 24.485779%, 24.485779%)" offset="0.546875"/><stop stop-opacity="1" stop-color="rgb(24.838257%, 24.838257%, 24.838257%)" offset="0.554687"/><stop stop-opacity="1" stop-color="rgb(25.190735%, 25.190735%, 25.190735%)" offset="0.5625"/><stop stop-opacity="1" stop-color="rgb(25.543213%, 25.543213%, 25.543213%)" offset="0.570312"/><stop stop-opacity="1" stop-color="rgb(25.895691%, 25.895691%, 25.895691%)" offset="0.578125"/><stop stop-opacity="1" stop-color="rgb(26.248169%, 26.248169%, 26.248169%)" offset="0.585937"/><stop stop-opacity="1" stop-color="rgb(26.600647%, 26.600647%, 26.600647%)" offset="0.59375"/><stop stop-opacity="1" stop-color="rgb(26.953125%, 26.953125%, 26.953125%)" offset="0.601562"/><stop stop-opacity="1" stop-color="rgb(27.305603%, 27.305603%, 27.305603%)" offset="0.609375"/><stop stop-opacity="1" stop-color="rgb(27.658081%, 27.658081%, 27.658081%)" offset="0.617187"/><stop stop-opacity="1" stop-color="rgb(28.010559%, 28.010559%, 28.010559%)" offset="0.625"/><stop stop-opacity="1" stop-color="rgb(28.361511%, 28.361511%, 28.361511%)" offset="0.632812"/><stop stop-opacity="1" stop-color="rgb(28.713989%, 28.713989%, 28.713989%)" offset="0.640625"/><stop stop-opacity="1" stop-color="rgb(29.066467%, 29.066467%, 29.066467%)" offset="0.648437"/><stop stop-opacity="1" stop-color="rgb(29.418945%, 29.418945%, 29.418945%)" offset="0.65625"/><stop stop-opacity="1" stop-color="rgb(29.771423%, 29.771423%, 29.771423%)" offset="0.664062"/><stop stop-opacity="1" stop-color="rgb(30.123901%, 30.123901%, 30.123901%)" offset="0.671875"/><stop stop-opacity="1" stop-color="rgb(30.476379%, 30.476379%, 30.476379%)" offset="0.679687"/><stop stop-opacity="1" stop-color="rgb(30.828857%, 30.828857%, 30.828857%)" offset="0.6875"/><stop stop-opacity="1" stop-color="rgb(31.181335%, 31.181335%, 31.181335%)" offset="0.695312"/><stop stop-opacity="1" stop-color="rgb(31.533813%, 31.533813%, 31.533813%)" offset="0.703125"/><stop stop-opacity="1" stop-color="rgb(31.886292%, 31.886292%, 31.886292%)" offset="0.710937"/><stop stop-opacity="1" stop-color="rgb(32.237244%, 32.237244%, 32.237244%)" offset="0.71875"/><stop stop-opacity="1" stop-color="rgb(32.589722%, 32.589722%, 32.589722%)" offset="0.726562"/><stop stop-opacity="1" stop-color="rgb(32.9422%, 32.9422%, 32.9422%)" offset="0.734375"/><stop stop-opacity="1" stop-color="rgb(33.294678%, 33.294678%, 33.294678%)" offset="0.742187"/><stop stop-opacity="1" stop-color="rgb(33.647156%, 33.647156%, 33.647156%)" offset="0.75"/><stop stop-opacity="1" stop-color="rgb(33.999634%, 33.999634%, 33.999634%)" offset="0.757812"/><stop stop-opacity="1" stop-color="rgb(34.352112%, 34.352112%, 34.352112%)" offset="0.765625"/><stop stop-opacity="1" stop-color="rgb(34.70459%, 34.70459%, 34.70459%)" offset="0.773438"/><stop stop-opacity="1" stop-color="rgb(35.057068%, 35.057068%, 35.057068%)" offset="0.78125"/><stop stop-opacity="1" stop-color="rgb(35.409546%, 35.409546%, 35.409546%)" offset="0.789062"/><stop stop-opacity="1" stop-color="rgb(35.762024%, 35.762024%, 35.762024%)" offset="0.796875"/><stop stop-opacity="1" stop-color="rgb(36.114502%, 36.114502%, 36.114502%)" offset="0.804688"/><stop stop-opacity="1" stop-color="rgb(36.465454%, 36.465454%, 36.465454%)" offset="0.8125"/><stop stop-opacity="1" stop-color="rgb(36.817932%, 36.817932%, 36.817932%)" offset="0.820312"/><stop stop-opacity="1" stop-color="rgb(37.17041%, 37.17041%, 37.17041%)" offset="0.828125"/><stop stop-opacity="1" stop-color="rgb(37.522888%, 37.522888%, 37.522888%)" offset="0.835938"/><stop stop-opacity="1" stop-color="rgb(37.875366%, 37.875366%, 37.875366%)" offset="0.84375"/><stop stop-opacity="1" stop-color="rgb(38.227844%, 38.227844%, 38.227844%)" offset="0.851562"/><stop stop-opacity="1" stop-color="rgb(38.580322%, 38.580322%, 38.580322%)" offset="0.859375"/><stop stop-opacity="1" stop-color="rgb(38.9328%, 38.9328%, 38.9328%)" offset="0.867188"/><stop stop-opacity="1" stop-color="rgb(39.285278%, 39.285278%, 39.285278%)" offset="0.875"/><stop stop-opacity="1" stop-color="rgb(39.637756%, 39.637756%, 39.637756%)" offset="0.882812"/><stop stop-opacity="1" stop-color="rgb(39.990234%, 39.990234%, 39.990234%)" offset="0.890625"/><stop stop-opacity="1" stop-color="rgb(40.341187%, 40.341187%, 40.341187%)" offset="0.898438"/><stop stop-opacity="1" stop-color="rgb(40.693665%, 40.693665%, 40.693665%)" offset="0.90625"/><stop stop-opacity="1" stop-color="rgb(41.046143%, 41.046143%, 41.046143%)" offset="0.914062"/><stop stop-opacity="1" stop-color="rgb(41.398621%, 41.398621%, 41.398621%)" offset="0.921875"/><stop stop-opacity="1" stop-color="rgb(41.751099%, 41.751099%, 41.751099%)" offset="0.929688"/><stop stop-opacity="1" stop-color="rgb(42.103577%, 42.103577%, 42.103577%)" offset="0.9375"/><stop stop-opacity="1" stop-color="rgb(42.456055%, 42.456055%, 42.456055%)" offset="0.945312"/><stop stop-opacity="1" stop-color="rgb(42.808533%, 42.808533%, 42.808533%)" offset="0.953125"/><stop stop-opacity="1" stop-color="rgb(43.161011%, 43.161011%, 43.161011%)" offset="0.960938"/><stop stop-opacity="1" stop-color="rgb(43.513489%, 43.513489%, 43.513489%)" offset="0.96875"/><stop stop-opacity="1" stop-color="rgb(43.865967%, 43.865967%, 43.865967%)" offset="0.976562"/><stop stop-opacity="1" stop-color="rgb(44.216919%, 44.216919%, 44.216919%)" offset="0.984375"/><stop stop-opacity="1" stop-color="rgb(44.569397%, 44.569397%, 44.569397%)" offset="0.992188"/><stop stop-opacity="1" stop-color="rgb(44.921875%, 44.921875%, 44.921875%)" offset="1"/></linearGradient><clipPath id="56b61b1469"><path d="M 103 93.785156 L 278 93.785156 L 278 296 L 103 296 Z M 103 93.785156 " clip-rule="nonzero"/></clipPath></defs><rect x="-37.5" width="450" fill="#ffffff" y="-37.499999" height="449.999989" fill-opacity="1"/><rect x="-37.5" fill="url(#287f955ce9)" width="450" y="-37.499999" height="449.999989"/><g clip-path="url(#56b61b1469)"><path fill="#ffffff" d="M 197.371094 295.121094 C 211.761719 287.765625 224.957031 278.675781 236.957031 267.851562 C 239.6875 265.414062 242.292969 262.820312 244.78125 260.066406 L 247.996094 256.410156 C 249.640625 254.617188 251.105469 252.753906 252.675781 250.746094 C 254.246094 248.734375 256.332031 246.175781 257.792969 243.800781 C 261.234375 238.855469 264.257812 233.664062 266.859375 228.226562 C 268.285156 225.265625 269.601562 222.234375 270.804688 219.164062 C 273.863281 211.089844 275.898438 202.769531 276.910156 194.195312 C 277.203125 191.820312 277.421875 189.445312 277.566406 187.070312 C 278.003906 180.953125 277.785156 174.863281 276.910156 168.792969 C 276.28125 164.390625 275.324219 160.0625 274.035156 155.808594 C 272.75 151.550781 271.144531 147.417969 269.226562 143.40625 C 267.308594 139.394531 265.097656 135.554688 262.589844 131.878906 C 260.085938 128.207031 257.316406 124.746094 254.285156 121.492188 C 250.796875 117.75 247.007812 114.335938 242.917969 111.257812 C 238.828125 108.179688 234.5 105.484375 229.9375 103.167969 C 225.371094 100.851562 220.640625 98.949219 215.742188 97.46875 C 210.84375 95.984375 205.851562 94.941406 200.769531 94.335938 C 199.128906 94.25 197.496094 94.066406 195.871094 93.785156 L 184.320312 93.785156 C 184.320312 94.078125 183.921875 93.96875 183.699219 94.007812 C 180.71875 94.246094 177.757812 94.636719 174.820312 95.175781 C 172.453125 95.613281 170.109375 96.148438 167.789062 96.78125 C 165.46875 97.414062 163.175781 98.136719 160.917969 98.957031 C 158.65625 99.777344 156.429688 100.6875 154.246094 101.691406 C 152.058594 102.695312 149.917969 103.785156 147.820312 104.964844 C 145.722656 106.144531 143.679688 107.40625 141.6875 108.753906 C 139.695312 110.101562 137.761719 111.527344 135.886719 113.035156 C 134.011719 114.539062 132.199219 116.121094 130.453125 117.777344 C 128.710938 119.429688 127.035156 121.15625 125.429688 122.949219 C 123.828125 124.742188 122.300781 126.597656 120.851562 128.515625 C 119.398438 130.433594 118.027344 132.40625 116.742188 134.4375 C 115.453125 136.46875 114.25 138.550781 113.132812 140.679688 C 112.015625 142.8125 110.988281 144.984375 110.046875 147.199219 C 109.109375 149.414062 108.265625 151.664062 107.511719 153.945312 C 106.757812 156.230469 106.097656 158.542969 105.535156 160.878906 C 104.972656 163.21875 104.503906 165.574219 104.136719 167.953125 C 103.765625 170.328125 103.496094 172.71875 103.320312 175.117188 C 102.839844 181.617188 103.066406 188.089844 104.003906 194.539062 C 104.941406 200.988281 106.566406 207.257812 108.878906 213.351562 C 109.660156 215.394531 110.550781 217.394531 111.546875 219.34375 L 112.277344 220.84375 C 116.925781 230.09375 123.019531 238.269531 130.554688 245.371094 C 134.480469 249.101562 138.722656 252.4375 143.273438 255.375 C 147.828125 258.316406 152.613281 260.804688 157.632812 262.847656 C 162.652344 264.886719 167.816406 266.445312 173.128906 267.523438 C 178.4375 268.597656 183.800781 269.167969 189.21875 269.238281 C 190.242188 269.238281 190.535156 269.496094 190.5 270.554688 L 190.5 291.171875 C 190.507812 291.367188 190.527344 291.5625 190.558594 291.757812 C 190.59375 291.953125 190.636719 292.144531 190.695312 292.332031 C 190.75 292.523438 190.820312 292.707031 190.898438 292.886719 C 190.980469 293.066406 191.070312 293.242188 191.171875 293.410156 C 191.273438 293.578125 191.386719 293.742188 191.507812 293.894531 C 191.632812 294.050781 191.761719 294.195312 191.90625 294.335938 C 192.046875 294.472656 192.195312 294.601562 192.351562 294.71875 C 192.507812 294.839844 192.671875 294.945312 192.84375 295.046875 C 193.015625 295.144531 193.191406 295.230469 193.375 295.304688 C 193.554688 295.382812 193.742188 295.445312 193.933594 295.5 C 194.121094 295.550781 194.316406 295.589844 194.507812 295.621094 C 194.703125 295.648438 194.902344 295.664062 195.097656 295.667969 C 195.296875 295.667969 195.492188 295.660156 195.6875 295.640625 C 195.882812 295.617188 196.078125 295.582031 196.269531 295.535156 C 196.460938 295.492188 196.648438 295.433594 196.832031 295.363281 C 197.019531 295.292969 197.199219 295.210938 197.371094 295.121094 Z M 198.613281 157.863281 C 198.527344 157.386719 198.511719 156.910156 198.570312 156.429688 C 198.628906 155.949219 198.757812 155.488281 198.957031 155.046875 C 199.15625 154.605469 199.417969 154.207031 199.738281 153.84375 C 200.0625 153.484375 200.429688 153.179688 200.84375 152.929688 C 201.550781 152.496094 202.316406 152.289062 203.148438 152.308594 L 235.570312 152.308594 C 238.457031 152.308594 240.101562 154.867188 240.101562 158.191406 L 240.101562 196.5 C 240.097656 197.855469 239.996094 199.203125 239.796875 200.542969 C 239.59375 201.886719 239.300781 203.203125 238.90625 204.5 C 238.515625 205.800781 238.03125 207.0625 237.453125 208.289062 C 236.878906 209.515625 236.214844 210.695312 235.46875 211.824219 C 234.71875 212.957031 233.894531 214.027344 232.992188 215.035156 C 232.085938 216.046875 231.113281 216.988281 230.074219 217.855469 C 229.035156 218.722656 227.933594 219.511719 226.78125 220.222656 C 225.625 220.929688 224.421875 221.554688 223.179688 222.085938 L 222.445312 222.453125 C 222.605469 222.652344 222.8125 222.75 223.066406 222.746094 C 222.8125 222.75 222.605469 222.652344 222.445312 222.453125 L 221.824219 222.453125 C 219.722656 223.066406 217.59375 223.542969 215.429688 223.878906 C 215.257812 223.929688 215.082031 223.957031 214.90625 223.96875 C 214.726562 223.980469 214.550781 223.96875 214.375 223.941406 C 214.199219 223.910156 214.03125 223.859375 213.867188 223.792969 C 213.703125 223.722656 213.546875 223.636719 213.402344 223.53125 C 213.257812 223.429688 213.128906 223.308594 213.011719 223.175781 C 212.890625 223.042969 212.792969 222.894531 212.707031 222.738281 C 212.625 222.582031 212.558594 222.417969 212.511719 222.246094 C 212.464844 222.074219 212.4375 221.898438 212.429688 221.722656 C 212.429688 220.550781 212.429688 219.382812 212.429688 218.066406 L 212.429688 211.777344 C 212.429688 211.304688 212.429688 210.863281 212.429688 210.390625 C 212.429688 208.78125 213.050781 208.085938 215.0625 207.648438 C 217.652344 207.195312 219.945312 206.113281 221.933594 204.394531 C 223.070312 203.292969 223.988281 202.035156 224.691406 200.617188 C 225.394531 199.199219 225.839844 197.703125 226.027344 196.132812 L 203.292969 196.132812 C 202.976562 196.144531 202.664062 196.121094 202.351562 196.070312 C 202.042969 196.015625 201.738281 195.929688 201.445312 195.8125 C 201.152344 195.695312 200.875 195.546875 200.613281 195.375 C 200.351562 195.199219 200.109375 195 199.886719 194.773438 C 199.664062 194.546875 199.46875 194.304688 199.296875 194.039062 C 199.125 193.773438 198.984375 193.492188 198.871094 193.195312 C 198.761719 192.902344 198.679688 192.597656 198.628906 192.285156 C 198.578125 191.976562 198.5625 191.660156 198.578125 191.347656 C 198.578125 180.257812 198.578125 169.171875 198.578125 158.082031 C 198.578125 158.082031 198.613281 157.9375 198.613281 157.863281 Z M 182.421875 196.425781 C 182.425781 198.363281 182.230469 200.277344 181.832031 202.167969 C 181.433594 204.0625 180.839844 205.890625 180.050781 207.660156 C 179.261719 209.425781 178.300781 211.09375 177.160156 212.65625 C 176.019531 214.21875 174.726562 215.644531 173.285156 216.933594 L 172.371094 217.808594 C 169.332031 220.242188 165.945312 221.996094 162.207031 223.074219 C 160.605469 223.476562 158.984375 223.78125 157.347656 223.988281 C 157.070312 224.03125 156.792969 224.019531 156.519531 223.960938 C 156.246094 223.902344 155.992188 223.800781 155.757812 223.648438 C 155.519531 223.496094 155.320312 223.308594 155.152344 223.082031 C 154.984375 222.859375 154.863281 222.613281 154.789062 222.34375 C 154.789062 218.808594 154.789062 215.289062 154.789062 211.777344 C 154.789062 210.753906 154.421875 209.621094 155.261719 208.707031 C 155.664062 208.246094 156.164062 207.941406 156.761719 207.792969 C 158.644531 207.453125 160.433594 206.84375 162.132812 205.96875 C 163.625 205.101562 164.878906 203.96875 165.898438 202.578125 C 166.914062 201.183594 167.609375 199.644531 167.984375 197.960938 L 168.566406 196.132812 L 146.199219 196.132812 C 145.554688 196.160156 144.921875 196.097656 144.296875 195.953125 C 143.832031 195.828125 143.394531 195.632812 142.992188 195.367188 C 142.589844 195.101562 142.238281 194.777344 141.9375 194.398438 C 141.640625 194.019531 141.40625 193.605469 141.242188 193.152344 C 141.074219 192.699219 140.984375 192.230469 140.96875 191.75 C 140.96875 180.515625 140.96875 169.28125 140.96875 158.046875 C 140.792969 157.179688 140.835938 156.320312 141.101562 155.476562 C 141.371094 154.628906 141.824219 153.902344 142.46875 153.292969 C 143.257812 152.578125 144.183594 152.210938 145.246094 152.199219 L 177.890625 152.199219 C 180.777344 152.199219 182.386719 153.113281 182.386719 158.082031 C 182.421875 158.996094 182.496094 184.183594 182.421875 196.425781 Z M 182.421875 196.425781 " fill-opacity="1" fill-rule="nonzero"/></g></svg>